<svg xmlns="http://www.w3.org/2000/svg" x="0px" y="0px" width="100" height="100" viewBox="0 0 48 48">
<path fill="#3dd9eb" d="M40,39H8V9c0-2.2,1.8-4,4-4h28V39z"></path><rect width="18" height="9" x="15" y="15" fill="#7debf5"></rect><path fill="#3dd9eb" d="M8,9v30h4V5C9.8,5,8,6.8,8,9z"></path><path fill="#7debf5" d="M40,43H11.5C9.6,43,8,41.4,8,39.5l0,0c0-1.9,1.6-3.5,3.5-3.5H40V43z"></path><path fill="#00b3d7" d="M8.1,39h32v-3H11.5C9.7,36,8.3,37.3,8.1,39z"></path><polygon fill="#eb0000" points="23,2 23,28 29.5,25 36,28 36,2"></polygon><rect width="13" height="3" x="23" y="2" fill="#f55376"></rect>
</svg>